# author: headus 3D tools
#  using: ply2obj v1.9
#   from: uvlayout v2.10.00
# 24 vertices
v -2.730000 -0.131000 2.730000
v 2.729686 -0.131000 2.730000
v -2.730000 10.891108 2.730000
v 2.729686 10.891108 2.730000
v -2.730000 10.891108 -2.729686
v 2.729686 10.891108 -2.729686
v -2.730000 -0.131000 -2.729686
v 2.729686 -0.131000 -2.729686
v 2.729686 3.662067 -2.464671
v 2.729686 3.662067 2.464987
v 2.729686 10.505168 -2.464671
v 2.729686 10.505168 2.464987
v 2.127976 3.800025 -2.365290
v 2.127976 3.800025 2.365605
v 2.127976 10.367210 -2.365290
v 2.127976 10.367210 2.365605
v 2.729686 0.882373 -2.108010
v 2.729686 0.882373 2.108327
v 2.729686 2.648692 -1.903349
v 2.729686 2.648692 1.903666
v 2.093552 0.882373 -2.108010
v 2.093552 0.882373 2.108327
v 2.093552 2.648692 -1.903349
v 2.093552 2.648692 1.903666
# 84 normals
vn 0.000000 0.000000 1.000000
vn 0.000000 0.000000 1.000000
vn 0.000000 0.000000 1.000000
vn 0.000000 0.000000 1.000000
vn 0.000000 1.000000 0.000000
vn 0.000000 1.000000 0.000000
vn 0.000000 1.000000 0.000000
vn 0.000000 1.000000 0.000000
vn 0.000000 0.000000 -1.000000
vn 0.000000 0.000000 -1.000000
vn 0.000000 0.000000 -1.000000
vn 0.000000 0.000000 -1.000000
vn 1.000000 0.000000 0.000000
vn 1.000000 0.000000 0.000000
vn 1.000000 0.000000 0.000000
vn 1.000000 0.000000 0.000000
vn -1.000000 0.000000 0.000000
vn -1.000000 0.000000 0.000000
vn -1.000000 0.000000 0.000000
vn -1.000000 0.000000 0.000000
vn 1.000000 0.000000 0.000000
vn 1.000000 0.000000 0.000000
vn 1.000000 0.000000 0.000000
vn 1.000000 0.000000 0.000000
vn 1.000000 0.000000 0.000000
vn 1.000000 0.000000 0.000000
vn 1.000000 0.000000 0.000000
vn 1.000000 0.000000 0.000000
vn 1.000000 0.000000 0.000000
vn 1.000000 0.000000 0.000000
vn 1.000000 0.000000 0.000000
vn 1.000000 0.000000 0.000000
vn 1.000000 0.000000 0.000000
vn 1.000000 0.000000 0.000000
vn 1.000000 0.000000 0.000000
vn 1.000000 0.000000 0.000000
vn 0.223463 0.974638 0.000000
vn 0.223463 0.974638 0.000000
vn 0.223463 0.974638 0.000000
vn 0.223463 0.974638 0.000000
vn 0.162943 0.000000 0.986571
vn 0.162943 0.000000 0.986571
vn 0.162943 0.000000 0.986571
vn 0.162943 0.000000 0.986571
vn 0.223463 -0.974638 0.000000
vn 0.223463 -0.974638 0.000000
vn 0.223463 -0.974638 0.000000
vn 0.223463 -0.974638 0.000000
vn 0.162943 0.000000 -0.986571
vn 0.162943 0.000000 -0.986571
vn 0.162943 0.000000 -0.986571
vn 0.162943 0.000000 -0.986571
vn 1.000000 0.000000 0.000000
vn 1.000000 0.000000 0.000000
vn 1.000000 0.000000 0.000000
vn 1.000000 0.000000 0.000000
vn 1.000000 0.000000 0.000000
vn 1.000000 0.000000 0.000000
vn 1.000000 0.000000 0.000000
vn 1.000000 0.000000 0.000000
vn 1.000000 0.000000 0.000000
vn 1.000000 0.000000 0.000000
vn 1.000000 0.000000 0.000000
vn 1.000000 0.000000 0.000000
vn 1.000000 0.000000 0.000000
vn 1.000000 0.000000 0.000000
vn 1.000000 0.000000 0.000000
vn 1.000000 0.000000 0.000000
vn 0.000000 1.000000 0.000000
vn 0.000000 1.000000 0.000000
vn 0.000000 1.000000 0.000000
vn 0.000000 1.000000 0.000000
vn 0.000000 -0.115028 0.993347
vn 0.000000 -0.115028 0.993347
vn 0.000000 -0.115028 0.993347
vn 0.000000 -0.115028 0.993347
vn 0.000000 -1.000000 0.000000
vn 0.000000 -1.000000 0.000000
vn 0.000000 -1.000000 0.000000
vn 0.000000 -1.000000 0.000000
vn 0.000000 -0.115028 -0.993347
vn 0.000000 -0.115028 -0.993347
vn 0.000000 -0.115028 -0.993347
vn 0.000000 -0.115028 -0.993347
# 58 uv coords
vt 0.480855 0.276148
vt 0.480818 0.477746
vt 0.104281 0.458040
vt 0.765033 0.250694
vt 0.997749 0.250694
vt 0.997749 0.720505
vt 0.765033 0.720505
vt 0.528215 0.247918
vt 0.760930 0.247918
vt 0.760930 0.717729
vt 0.528215 0.717729
vt 0.708201 0.954270
vt 0.475486 0.954270
vt 0.475486 0.721554
vt 0.708201 0.721554
vt 0.471662 0.755782
vt 0.471662 0.988498
vt 0.001850 0.988498
vt 0.001850 0.755782
vt 0.104260 0.295766
vt 0.174600 0.271825
vt 1.329059 0.015374
vt 1.329068 0.217342
vt 0.174580 0.481948
vt 0.396672 0.001850
vt 0.507155 0.271859
vt 0.507119 0.482037
vt 0.396690 0.752066
vt 1.246141 0.201600
vt 1.246121 0.031134
vt 0.523608 0.260592
vt 0.523568 0.493307
vt 0.032117 0.493709
vt 0.028993 0.466776
vt 0.032081 0.260127
vt 0.028967 0.287059
vt 0.001879 0.466783
vt 0.001850 0.287063
vt 0.498612 0.240178
vt 0.498680 0.007815
vt 0.542059 0.034014
vt 0.542007 0.214006
vt 0.660441 0.017115
vt 0.617546 0.041625
vt 0.617498 0.206439
vt 0.660379 0.230974
vt 0.968423 0.001850
vt 0.952118 0.013356
vt 0.968351 0.246429
vt 0.952054 0.234913
vt 0.131394 0.458030
vt 0.107404 0.484977
vt 0.107371 0.268829
vt 0.131387 0.295758
vt 0.200889 0.477711
vt 0.374856 0.736782
vt 0.374842 0.017138
vt 0.200928 0.276059
# 21 polygons
usemtl initialShadingGroup
s off
g pCube1
f 1/8/1 2/9/2 4/10/3 3/11/4
f 3/12/5 4/13/6 6/14/7 5/15/8
f 5/4/9 6/5/10 8/6/11 7/7/12
f 14/55/13 13/58/14 15/1/15 16/2/16
f 7/16/17 1/17/18 3/18/19 5/19/20
f 22/34/21 21/36/22 23/20/23 24/3/24
f 8/40/25 6/47/26 11/48/27 9/43/28
f 6/31/29 4/32/30 12/27/31 11/26/32
f 4/49/33 2/39/34 10/46/35 12/50/36
f 10/24/37 9/21/38 13/58/39 14/55/40
f 9/25/41 11/26/42 15/1/43 13/57/44
f 11/26/45 12/27/46 16/2/47 15/1/48
f 12/27/49 10/28/50 14/56/51 16/2/52
f 2/39/53 8/40/54 17/41/55 18/42/56
f 8/40/57 9/43/58 19/44/59 17/41/60
f 9/21/61 10/24/62 20/51/63 19/54/64
f 10/46/65 2/39/66 18/42/67 20/45/68
f 18/37/69 17/38/70 21/36/71 22/34/72
f 17/35/73 19/53/74 23/20/75 21/36/76
f 19/54/77 20/51/78 24/3/79 23/20/80
f 20/52/81 18/33/82 22/34/83 24/3/84
# h3dt: 24 58 84 21
